<?xml version="1.0" encoding="UTF-8" standalone="no"?>
<!DOCTYPE svg PUBLIC "-//W3C//DTD SVG 1.1//EN"
 "http://www.w3.org/Graphics/SVG/1.1/DTD/svg11.dtd">
<!-- Generated by graphviz version 2.42.4 (0)
 -->
<!-- Pages: 1 -->
<svg width="132pt" height="384pt"
 viewBox="0.00 0.00 132.00 384.00" xmlns="http://www.w3.org/2000/svg" xmlns:xlink="http://www.w3.org/1999/xlink">
<g id="graph0" class="graph" transform="scale(1 1) rotate(0) translate(4 380)">
<polygon fill="white" stroke="transparent" points="-4,4 -4,-380 128,-380 128,4 -4,4"/>
<!-- __GI___clone3:/usr/lib/x86_64&#45;linux&#45;gnu/libc.so.6 -->
<g id="node1" class="node">
<title>__GI___clone3:/usr/lib/x86_64&#45;linux&#45;gnu/libc.so.6</title>
<polygon fill="#ff0000" stroke="#ffffff" points="103,-376 21,-376 21,-324 103,-324 103,-376"/>
<text text-anchor="middle" x="62" y="-364" font-family="Arial" font-size="10.00" fill="white">libc.so.6</text>
<text text-anchor="middle" x="62" y="-353" font-family="Arial" font-size="10.00" fill="white">__GI___clone3</text>
<text text-anchor="middle" x="62" y="-342" font-family="Arial" font-size="10.00" fill="white">0.00%</text>
<text text-anchor="middle" x="62" y="-331" font-family="Arial" font-size="10.00" fill="white">of 100.00%</text>
</g>
<!-- start_thread:/usr/lib/x86_64&#45;linux&#45;gnu/libc.so.6 -->
<g id="node2" class="node">
<title>start_thread:/usr/lib/x86_64&#45;linux&#45;gnu/libc.so.6</title>
<polygon fill="#ff0000" stroke="#ffffff" points="96,-295 28,-295 28,-243 96,-243 96,-295"/>
<text text-anchor="middle" x="62" y="-283" font-family="Arial" font-size="10.00" fill="white">libc.so.6</text>
<text text-anchor="middle" x="62" y="-272" font-family="Arial" font-size="10.00" fill="white">start_thread</text>
<text text-anchor="middle" x="62" y="-261" font-family="Arial" font-size="10.00" fill="white">0.00%</text>
<text text-anchor="middle" x="62" y="-250" font-family="Arial" font-size="10.00" fill="white">of 100.00%</text>
</g>
<!-- __GI___clone3:/usr/lib/x86_64&#45;linux&#45;gnu/libc.so.6&#45;&gt;start_thread:/usr/lib/x86_64&#45;linux&#45;gnu/libc.so.6 -->
<g id="edge1" class="edge">
<title>__GI___clone3:/usr/lib/x86_64&#45;linux&#45;gnu/libc.so.6&#45;&gt;start_thread:/usr/lib/x86_64&#45;linux&#45;gnu/libc.so.6</title>
<path fill="none" stroke="#ff0000" stroke-width="4" d="M62,-323.57C62,-317.73 62,-311.42 62,-305.25"/>
<polygon fill="#ff0000" stroke="#ff0000" stroke-width="4" points="65.5,-305.11 62,-295.11 58.5,-305.11 65.5,-305.11"/>
<text text-anchor="middle" x="81.5" y="-307" font-family="Arial" font-size="10.00">100.00%</text>
</g>
<!-- waiter_thread_main:/home/hpcow/codes/TCSA/mock/contender -->
<g id="node4" class="node">
<title>waiter_thread_main:/home/hpcow/codes/TCSA/mock/contender</title>
<polygon fill="#ff0000" stroke="#ffffff" points="112.5,-214 11.5,-214 11.5,-162 112.5,-162 112.5,-214"/>
<text text-anchor="middle" x="62" y="-202" font-family="Arial" font-size="10.00" fill="white">contender</text>
<text text-anchor="middle" x="62" y="-191" font-family="Arial" font-size="10.00" fill="white">waiter_thread_main</text>
<text text-anchor="middle" x="62" y="-180" font-family="Arial" font-size="10.00" fill="white">0.00%</text>
<text text-anchor="middle" x="62" y="-169" font-family="Arial" font-size="10.00" fill="white">of 100.00%</text>
</g>
<!-- start_thread:/usr/lib/x86_64&#45;linux&#45;gnu/libc.so.6&#45;&gt;waiter_thread_main:/home/hpcow/codes/TCSA/mock/contender -->
<g id="edge2" class="edge">
<title>start_thread:/usr/lib/x86_64&#45;linux&#45;gnu/libc.so.6&#45;&gt;waiter_thread_main:/home/hpcow/codes/TCSA/mock/contender</title>
<path fill="none" stroke="#ff0000" stroke-width="4" d="M62,-242.57C62,-236.73 62,-230.42 62,-224.25"/>
<polygon fill="#ff0000" stroke="#ff0000" stroke-width="4" points="65.5,-224.11 62,-214.11 58.5,-224.11 65.5,-224.11"/>
<text text-anchor="middle" x="81.5" y="-226" font-family="Arial" font-size="10.00">100.00%</text>
</g>
<!-- check_and_acquire_lock:/home/hpcow/codes/TCSA/mock/contender -->
<g id="node3" class="node">
<title>check_and_acquire_lock:/home/hpcow/codes/TCSA/mock/contender</title>
<polygon fill="#ff0000" stroke="#ffffff" points="124,-52 0,-52 0,0 124,0 124,-52"/>
<text text-anchor="middle" x="62" y="-40" font-family="Arial" font-size="10.00" fill="white">contender</text>
<text text-anchor="middle" x="62" y="-29" font-family="Arial" font-size="10.00" fill="white">check_and_acquire_lock</text>
<text text-anchor="middle" x="62" y="-18" font-family="Arial" font-size="10.00" fill="white">100.00%</text>
<text text-anchor="middle" x="62" y="-7" font-family="Arial" font-size="10.00" fill="white">of 100.00%</text>
</g>
<!-- wait_for_lock:/home/hpcow/codes/TCSA/mock/contender -->
<g id="node5" class="node">
<title>wait_for_lock:/home/hpcow/codes/TCSA/mock/contender</title>
<polygon fill="#ff0000" stroke="#ffffff" points="99,-133 25,-133 25,-81 99,-81 99,-133"/>
<text text-anchor="middle" x="62" y="-121" font-family="Arial" font-size="10.00" fill="white">contender</text>
<text text-anchor="middle" x="62" y="-110" font-family="Arial" font-size="10.00" fill="white">wait_for_lock</text>
<text text-anchor="middle" x="62" y="-99" font-family="Arial" font-size="10.00" fill="white">0.00%</text>
<text text-anchor="middle" x="62" y="-88" font-family="Arial" font-size="10.00" fill="white">of 100.00%</text>
</g>
<!-- waiter_thread_main:/home/hpcow/codes/TCSA/mock/contender&#45;&gt;wait_for_lock:/home/hpcow/codes/TCSA/mock/contender -->
<g id="edge4" class="edge">
<title>waiter_thread_main:/home/hpcow/codes/TCSA/mock/contender&#45;&gt;wait_for_lock:/home/hpcow/codes/TCSA/mock/contender</title>
<path fill="none" stroke="#ff0000" stroke-width="4" d="M62,-161.57C62,-155.73 62,-149.42 62,-143.25"/>
<polygon fill="#ff0000" stroke="#ff0000" stroke-width="4" points="65.5,-143.11 62,-133.11 58.5,-143.11 65.5,-143.11"/>
<text text-anchor="middle" x="81.5" y="-145" font-family="Arial" font-size="10.00">100.00%</text>
</g>
<!-- wait_for_lock:/home/hpcow/codes/TCSA/mock/contender&#45;&gt;check_and_acquire_lock:/home/hpcow/codes/TCSA/mock/contender -->
<g id="edge3" class="edge">
<title>wait_for_lock:/home/hpcow/codes/TCSA/mock/contender&#45;&gt;check_and_acquire_lock:/home/hpcow/codes/TCSA/mock/contender</title>
<path fill="none" stroke="#ff0000" stroke-width="4" d="M62,-80.57C62,-74.73 62,-68.42 62,-62.25"/>
<polygon fill="#ff0000" stroke="#ff0000" stroke-width="4" points="65.5,-62.11 62,-52.11 58.5,-62.11 65.5,-62.11"/>
<text text-anchor="middle" x="81.5" y="-64" font-family="Arial" font-size="10.00">100.00%</text>
</g>
</g>
</svg>
