<?xml version="1.0" encoding="UTF-8" standalone="no"?>
<!DOCTYPE svg PUBLIC "-//W3C//DTD SVG 1.1//EN"
 "http://www.w3.org/Graphics/SVG/1.1/DTD/svg11.dtd">
<!-- Generated by graphviz version 2.42.4 (0)
 -->
<!-- Pages: 1 -->
<svg width="273pt" height="1437pt"
 viewBox="0.00 0.00 272.50 1437.00" xmlns="http://www.w3.org/2000/svg" xmlns:xlink="http://www.w3.org/1999/xlink">
<g id="graph0" class="graph" transform="scale(1 1) rotate(0) translate(4 1433)">
<polygon fill="white" stroke="transparent" points="-4,4 -4,-1433 268.5,-1433 268.5,4 -4,4"/>
<!-- __GI___clone3:/usr/lib/x86_64&#45;linux&#45;gnu/libc.so.6 -->
<g id="node1" class="node">
<title>__GI___clone3:/usr/lib/x86_64&#45;linux&#45;gnu/libc.so.6</title>
<polygon fill="#ff0000" stroke="#ffffff" points="218.5,-1429 136.5,-1429 136.5,-1377 218.5,-1377 218.5,-1429"/>
<text text-anchor="middle" x="177.5" y="-1417" font-family="Arial" font-size="10.00" fill="white">libc.so.6</text>
<text text-anchor="middle" x="177.5" y="-1406" font-family="Arial" font-size="10.00" fill="white">__GI___clone3</text>
<text text-anchor="middle" x="177.5" y="-1395" font-family="Arial" font-size="10.00" fill="white">0.00%</text>
<text text-anchor="middle" x="177.5" y="-1384" font-family="Arial" font-size="10.00" fill="white">of 100.00%</text>
</g>
<!-- start_thread:/usr/lib/x86_64&#45;linux&#45;gnu/libc.so.6 -->
<g id="node2" class="node">
<title>start_thread:/usr/lib/x86_64&#45;linux&#45;gnu/libc.so.6</title>
<polygon fill="#ff0000" stroke="#ffffff" points="211.5,-1348 143.5,-1348 143.5,-1296 211.5,-1296 211.5,-1348"/>
<text text-anchor="middle" x="177.5" y="-1336" font-family="Arial" font-size="10.00" fill="white">libc.so.6</text>
<text text-anchor="middle" x="177.5" y="-1325" font-family="Arial" font-size="10.00" fill="white">start_thread</text>
<text text-anchor="middle" x="177.5" y="-1314" font-family="Arial" font-size="10.00" fill="white">0.00%</text>
<text text-anchor="middle" x="177.5" y="-1303" font-family="Arial" font-size="10.00" fill="white">of 100.00%</text>
</g>
<!-- __GI___clone3:/usr/lib/x86_64&#45;linux&#45;gnu/libc.so.6&#45;&gt;start_thread:/usr/lib/x86_64&#45;linux&#45;gnu/libc.so.6 -->
<g id="edge1" class="edge">
<title>__GI___clone3:/usr/lib/x86_64&#45;linux&#45;gnu/libc.so.6&#45;&gt;start_thread:/usr/lib/x86_64&#45;linux&#45;gnu/libc.so.6</title>
<path fill="none" stroke="#ff0000" stroke-width="4" d="M177.5,-1376.57C177.5,-1370.73 177.5,-1364.42 177.5,-1358.25"/>
<polygon fill="#ff0000" stroke="#ff0000" stroke-width="4" points="181,-1358.11 177.5,-1348.11 174,-1358.11 181,-1358.11"/>
<text text-anchor="middle" x="197" y="-1360" font-family="Arial" font-size="10.00">100.00%</text>
</g>
<!-- waiter_thread_main:/home/hpcow/codes/TCSA/mock/contender -->
<g id="node17" class="node">
<title>waiter_thread_main:/home/hpcow/codes/TCSA/mock/contender</title>
<polygon fill="#ff0000" stroke="#ffffff" points="228,-1267 127,-1267 127,-1215 228,-1215 228,-1267"/>
<text text-anchor="middle" x="177.5" y="-1255" font-family="Arial" font-size="10.00" fill="white">contender</text>
<text text-anchor="middle" x="177.5" y="-1244" font-family="Arial" font-size="10.00" fill="white">waiter_thread_main</text>
<text text-anchor="middle" x="177.5" y="-1233" font-family="Arial" font-size="10.00" fill="white">0.00%</text>
<text text-anchor="middle" x="177.5" y="-1222" font-family="Arial" font-size="10.00" fill="white">of 100.00%</text>
</g>
<!-- start_thread:/usr/lib/x86_64&#45;linux&#45;gnu/libc.so.6&#45;&gt;waiter_thread_main:/home/hpcow/codes/TCSA/mock/contender -->
<g id="edge11" class="edge">
<title>start_thread:/usr/lib/x86_64&#45;linux&#45;gnu/libc.so.6&#45;&gt;waiter_thread_main:/home/hpcow/codes/TCSA/mock/contender</title>
<path fill="none" stroke="#ff0000" stroke-width="4" d="M177.5,-1295.57C177.5,-1289.73 177.5,-1283.42 177.5,-1277.25"/>
<polygon fill="#ff0000" stroke="#ff0000" stroke-width="4" points="181,-1277.11 177.5,-1267.11 174,-1277.11 181,-1277.11"/>
<text text-anchor="middle" x="197" y="-1279" font-family="Arial" font-size="10.00">100.00%</text>
</g>
<!-- __hrtimer_run_queues:[kernel.kallsyms] -->
<g id="node3" class="node">
<title>__hrtimer_run_queues:[kernel.kallsyms]</title>
<polygon fill="#0ab60a" stroke="#ffffff" points="132,-700 19,-700 19,-648 132,-648 132,-700"/>
<text text-anchor="middle" x="75.5" y="-688" font-family="Arial" font-size="10.00" fill="white">[kernel.kallsyms]</text>
<text text-anchor="middle" x="75.5" y="-677" font-family="Arial" font-size="10.00" fill="white">__hrtimer_run_queues</text>
<text text-anchor="middle" x="75.5" y="-666" font-family="Arial" font-size="10.00" fill="white">0.00%</text>
<text text-anchor="middle" x="75.5" y="-655" font-family="Arial" font-size="10.00" fill="white">of 50.00%</text>
</g>
<!-- tick_nohz_handler:[kernel.kallsyms] -->
<g id="node4" class="node">
<title>tick_nohz_handler:[kernel.kallsyms]</title>
<polygon fill="#0ab60a" stroke="#ffffff" points="123,-619 28,-619 28,-567 123,-567 123,-619"/>
<text text-anchor="middle" x="75.5" y="-607" font-family="Arial" font-size="10.00" fill="white">[kernel.kallsyms]</text>
<text text-anchor="middle" x="75.5" y="-596" font-family="Arial" font-size="10.00" fill="white">tick_nohz_handler</text>
<text text-anchor="middle" x="75.5" y="-585" font-family="Arial" font-size="10.00" fill="white">0.00%</text>
<text text-anchor="middle" x="75.5" y="-574" font-family="Arial" font-size="10.00" fill="white">of 50.00%</text>
</g>
<!-- __hrtimer_run_queues:[kernel.kallsyms]&#45;&gt;tick_nohz_handler:[kernel.kallsyms] -->
<g id="edge2" class="edge">
<title>__hrtimer_run_queues:[kernel.kallsyms]&#45;&gt;tick_nohz_handler:[kernel.kallsyms]</title>
<path fill="none" stroke="#0ab60a" stroke-width="2" d="M75.5,-647.57C75.5,-640.88 75.5,-633.57 75.5,-626.56"/>
<polygon fill="#0ab60a" stroke="#0ab60a" stroke-width="2" points="77.99,-626.21 75.5,-619.11 73.02,-626.21 77.99,-626.21"/>
<text text-anchor="middle" x="92.5" y="-631" font-family="Arial" font-size="10.00">50.00%</text>
</g>
<!-- update_process_times:[kernel.kallsyms] -->
<g id="node18" class="node">
<title>update_process_times:[kernel.kallsyms]</title>
<polygon fill="#0ab60a" stroke="#ffffff" points="133,-538 18,-538 18,-486 133,-486 133,-538"/>
<text text-anchor="middle" x="75.5" y="-526" font-family="Arial" font-size="10.00" fill="white">[kernel.kallsyms]</text>
<text text-anchor="middle" x="75.5" y="-515" font-family="Arial" font-size="10.00" fill="white">update_process_times</text>
<text text-anchor="middle" x="75.5" y="-504" font-family="Arial" font-size="10.00" fill="white">0.00%</text>
<text text-anchor="middle" x="75.5" y="-493" font-family="Arial" font-size="10.00" fill="white">of 50.00%</text>
</g>
<!-- tick_nohz_handler:[kernel.kallsyms]&#45;&gt;update_process_times:[kernel.kallsyms] -->
<g id="edge14" class="edge">
<title>tick_nohz_handler:[kernel.kallsyms]&#45;&gt;update_process_times:[kernel.kallsyms]</title>
<path fill="none" stroke="#0ab60a" stroke-width="2" d="M75.5,-566.57C75.5,-559.88 75.5,-552.57 75.5,-545.56"/>
<polygon fill="#0ab60a" stroke="#0ab60a" stroke-width="2" points="77.99,-545.21 75.5,-538.11 73.02,-545.21 77.99,-545.21"/>
<text text-anchor="middle" x="92.5" y="-550" font-family="Arial" font-size="10.00">50.00%</text>
</g>
<!-- __sysvec_apic_timer_interrupt:[kernel.kallsyms] -->
<g id="node5" class="node">
<title>__sysvec_apic_timer_interrupt:[kernel.kallsyms]</title>
<polygon fill="#0ab60a" stroke="#ffffff" points="150,-862 1,-862 1,-810 150,-810 150,-862"/>
<text text-anchor="middle" x="75.5" y="-850" font-family="Arial" font-size="10.00" fill="white">[kernel.kallsyms]</text>
<text text-anchor="middle" x="75.5" y="-839" font-family="Arial" font-size="10.00" fill="white">__sysvec_apic_timer_interrupt</text>
<text text-anchor="middle" x="75.5" y="-828" font-family="Arial" font-size="10.00" fill="white">0.00%</text>
<text text-anchor="middle" x="75.5" y="-817" font-family="Arial" font-size="10.00" fill="white">of 50.00%</text>
</g>
<!-- hrtimer_interrupt:[kernel.kallsyms] -->
<g id="node6" class="node">
<title>hrtimer_interrupt:[kernel.kallsyms]</title>
<polygon fill="#0ab60a" stroke="#ffffff" points="121,-781 30,-781 30,-729 121,-729 121,-781"/>
<text text-anchor="middle" x="75.5" y="-769" font-family="Arial" font-size="10.00" fill="white">[kernel.kallsyms]</text>
<text text-anchor="middle" x="75.5" y="-758" font-family="Arial" font-size="10.00" fill="white">hrtimer_interrupt</text>
<text text-anchor="middle" x="75.5" y="-747" font-family="Arial" font-size="10.00" fill="white">0.00%</text>
<text text-anchor="middle" x="75.5" y="-736" font-family="Arial" font-size="10.00" fill="white">of 50.00%</text>
</g>
<!-- __sysvec_apic_timer_interrupt:[kernel.kallsyms]&#45;&gt;hrtimer_interrupt:[kernel.kallsyms] -->
<g id="edge3" class="edge">
<title>__sysvec_apic_timer_interrupt:[kernel.kallsyms]&#45;&gt;hrtimer_interrupt:[kernel.kallsyms]</title>
<path fill="none" stroke="#0ab60a" stroke-width="2" d="M75.5,-809.57C75.5,-802.88 75.5,-795.57 75.5,-788.56"/>
<polygon fill="#0ab60a" stroke="#0ab60a" stroke-width="2" points="77.99,-788.21 75.5,-781.11 73.02,-788.21 77.99,-788.21"/>
<text text-anchor="middle" x="92.5" y="-793" font-family="Arial" font-size="10.00">50.00%</text>
</g>
<!-- hrtimer_interrupt:[kernel.kallsyms]&#45;&gt;__hrtimer_run_queues:[kernel.kallsyms] -->
<g id="edge7" class="edge">
<title>hrtimer_interrupt:[kernel.kallsyms]&#45;&gt;__hrtimer_run_queues:[kernel.kallsyms]</title>
<path fill="none" stroke="#0ab60a" stroke-width="2" d="M75.5,-728.57C75.5,-721.88 75.5,-714.57 75.5,-707.56"/>
<polygon fill="#0ab60a" stroke="#0ab60a" stroke-width="2" points="77.99,-707.21 75.5,-700.11 73.02,-707.21 77.99,-707.21"/>
<text text-anchor="middle" x="92.5" y="-712" font-family="Arial" font-size="10.00">50.00%</text>
</g>
<!-- amd_pmu_disable_all:[kernel.kallsyms] -->
<g id="node7" class="node">
<title>amd_pmu_disable_all:[kernel.kallsyms]</title>
<polygon fill="#0ab60a" stroke="#ffffff" points="130.5,-133 20.5,-133 20.5,-81 130.5,-81 130.5,-133"/>
<text text-anchor="middle" x="75.5" y="-121" font-family="Arial" font-size="10.00" fill="white">[kernel.kallsyms]</text>
<text text-anchor="middle" x="75.5" y="-110" font-family="Arial" font-size="10.00" fill="white">amd_pmu_disable_all</text>
<text text-anchor="middle" x="75.5" y="-99" font-family="Arial" font-size="10.00" fill="white">0.00%</text>
<text text-anchor="middle" x="75.5" y="-88" font-family="Arial" font-size="10.00" fill="white">of 50.00%</text>
</g>
<!-- native_write_msr:[kernel.kallsyms] -->
<g id="node8" class="node">
<title>native_write_msr:[kernel.kallsyms]</title>
<polygon fill="#0ab60a" stroke="#ffffff" points="121,-52 30,-52 30,0 121,0 121,-52"/>
<text text-anchor="middle" x="75.5" y="-40" font-family="Arial" font-size="10.00" fill="white">[kernel.kallsyms]</text>
<text text-anchor="middle" x="75.5" y="-29" font-family="Arial" font-size="10.00" fill="white">native_write_msr</text>
<text text-anchor="middle" x="75.5" y="-18" font-family="Arial" font-size="10.00" fill="white">50.00%</text>
<text text-anchor="middle" x="75.5" y="-7" font-family="Arial" font-size="10.00" fill="white">of 50.00%</text>
</g>
<!-- amd_pmu_disable_all:[kernel.kallsyms]&#45;&gt;native_write_msr:[kernel.kallsyms] -->
<g id="edge4" class="edge">
<title>amd_pmu_disable_all:[kernel.kallsyms]&#45;&gt;native_write_msr:[kernel.kallsyms]</title>
<path fill="none" stroke="#0ab60a" stroke-width="2" d="M75.5,-80.57C75.5,-73.88 75.5,-66.57 75.5,-59.56"/>
<polygon fill="#0ab60a" stroke="#0ab60a" stroke-width="2" points="77.99,-59.21 75.5,-52.11 73.02,-59.21 77.99,-59.21"/>
<text text-anchor="middle" x="92.5" y="-64" font-family="Arial" font-size="10.00">50.00%</text>
</g>
<!-- asm_sysvec_apic_timer_interrupt:[kernel.kallsyms] -->
<g id="node9" class="node">
<title>asm_sysvec_apic_timer_interrupt:[kernel.kallsyms]</title>
<polygon fill="#ff0000" stroke="#ffffff" points="259,-1024 96,-1024 96,-972 259,-972 259,-1024"/>
<text text-anchor="middle" x="177.5" y="-1012" font-family="Arial" font-size="10.00" fill="white">[kernel.kallsyms]</text>
<text text-anchor="middle" x="177.5" y="-1001" font-family="Arial" font-size="10.00" fill="white">asm_sysvec_apic_timer_interrupt</text>
<text text-anchor="middle" x="177.5" y="-990" font-family="Arial" font-size="10.00" fill="white">0.00%</text>
<text text-anchor="middle" x="177.5" y="-979" font-family="Arial" font-size="10.00" fill="white">of 100.00%</text>
</g>
<!-- sysvec_apic_timer_interrupt:[kernel.kallsyms] -->
<g id="node10" class="node">
<title>sysvec_apic_timer_interrupt:[kernel.kallsyms]</title>
<polygon fill="#ff0000" stroke="#ffffff" points="247,-943 108,-943 108,-891 247,-891 247,-943"/>
<text text-anchor="middle" x="177.5" y="-931" font-family="Arial" font-size="10.00" fill="white">[kernel.kallsyms]</text>
<text text-anchor="middle" x="177.5" y="-920" font-family="Arial" font-size="10.00" fill="white">sysvec_apic_timer_interrupt</text>
<text text-anchor="middle" x="177.5" y="-909" font-family="Arial" font-size="10.00" fill="white">0.00%</text>
<text text-anchor="middle" x="177.5" y="-898" font-family="Arial" font-size="10.00" fill="white">of 100.00%</text>
</g>
<!-- asm_sysvec_apic_timer_interrupt:[kernel.kallsyms]&#45;&gt;sysvec_apic_timer_interrupt:[kernel.kallsyms] -->
<g id="edge5" class="edge">
<title>asm_sysvec_apic_timer_interrupt:[kernel.kallsyms]&#45;&gt;sysvec_apic_timer_interrupt:[kernel.kallsyms]</title>
<path fill="none" stroke="#ff0000" stroke-width="4" d="M177.5,-971.57C177.5,-965.73 177.5,-959.42 177.5,-953.25"/>
<polygon fill="#ff0000" stroke="#ff0000" stroke-width="4" points="181,-953.11 177.5,-943.11 174,-953.11 181,-953.11"/>
<text text-anchor="middle" x="197" y="-955" font-family="Arial" font-size="10.00">100.00%</text>
</g>
<!-- sysvec_apic_timer_interrupt:[kernel.kallsyms]&#45;&gt;__sysvec_apic_timer_interrupt:[kernel.kallsyms] -->
<g id="edge12" class="edge">
<title>sysvec_apic_timer_interrupt:[kernel.kallsyms]&#45;&gt;__sysvec_apic_timer_interrupt:[kernel.kallsyms]</title>
<path fill="none" stroke="#0ab60a" stroke-width="2" d="M144.95,-890.79C135.01,-883.09 123.99,-874.56 113.72,-866.6"/>
<polygon fill="#0ab60a" stroke="#0ab60a" stroke-width="2" points="115.23,-864.63 108.09,-862.24 112.19,-868.56 115.23,-864.63"/>
<text text-anchor="middle" x="150.5" y="-874" font-family="Arial" font-size="10.00">50.00%</text>
</g>
<!-- native_apic_msr_eoi:[kernel.kallsyms] -->
<g id="node12" class="node">
<title>native_apic_msr_eoi:[kernel.kallsyms]</title>
<polygon fill="#0ab60a" stroke="#ffffff" points="264.5,-862 158.5,-862 158.5,-810 264.5,-810 264.5,-862"/>
<text text-anchor="middle" x="211.5" y="-850" font-family="Arial" font-size="10.00" fill="white">[kernel.kallsyms]</text>
<text text-anchor="middle" x="211.5" y="-839" font-family="Arial" font-size="10.00" fill="white">native_apic_msr_eoi</text>
<text text-anchor="middle" x="211.5" y="-828" font-family="Arial" font-size="10.00" fill="white">50.00%</text>
<text text-anchor="middle" x="211.5" y="-817" font-family="Arial" font-size="10.00" fill="white">of 50.00%</text>
</g>
<!-- sysvec_apic_timer_interrupt:[kernel.kallsyms]&#45;&gt;native_apic_msr_eoi:[kernel.kallsyms] -->
<g id="edge13" class="edge">
<title>sysvec_apic_timer_interrupt:[kernel.kallsyms]&#45;&gt;native_apic_msr_eoi:[kernel.kallsyms]</title>
<path fill="none" stroke="#0ab60a" stroke-width="2" d="M188.44,-890.57C191.45,-883.59 194.74,-875.94 197.87,-868.66"/>
<polygon fill="#0ab60a" stroke="#0ab60a" stroke-width="2" points="200.17,-869.62 200.69,-862.11 195.6,-867.65 200.17,-869.62"/>
<text text-anchor="middle" x="213.5" y="-874" font-family="Arial" font-size="10.00">50.00%</text>
</g>
<!-- check_and_acquire_lock:/home/hpcow/codes/TCSA/mock/contender -->
<g id="node11" class="node">
<title>check_and_acquire_lock:/home/hpcow/codes/TCSA/mock/contender</title>
<polygon fill="#ff0000" stroke="#ffffff" points="239.5,-1105 115.5,-1105 115.5,-1053 239.5,-1053 239.5,-1105"/>
<text text-anchor="middle" x="177.5" y="-1093" font-family="Arial" font-size="10.00" fill="white">contender</text>
<text text-anchor="middle" x="177.5" y="-1082" font-family="Arial" font-size="10.00" fill="white">check_and_acquire_lock</text>
<text text-anchor="middle" x="177.5" y="-1071" font-family="Arial" font-size="10.00" fill="white">0.00%</text>
<text text-anchor="middle" x="177.5" y="-1060" font-family="Arial" font-size="10.00" fill="white">of 100.00%</text>
</g>
<!-- check_and_acquire_lock:/home/hpcow/codes/TCSA/mock/contender&#45;&gt;asm_sysvec_apic_timer_interrupt:[kernel.kallsyms] -->
<g id="edge6" class="edge">
<title>check_and_acquire_lock:/home/hpcow/codes/TCSA/mock/contender&#45;&gt;asm_sysvec_apic_timer_interrupt:[kernel.kallsyms]</title>
<path fill="none" stroke="#ff0000" stroke-width="4" d="M177.5,-1052.57C177.5,-1046.73 177.5,-1040.42 177.5,-1034.25"/>
<polygon fill="#ff0000" stroke="#ff0000" stroke-width="4" points="181,-1034.11 177.5,-1024.11 174,-1034.11 181,-1034.11"/>
<text text-anchor="middle" x="197" y="-1036" font-family="Arial" font-size="10.00">100.00%</text>
</g>
<!-- perf_adjust_freq_unthr_context:[kernel.kallsyms] -->
<g id="node13" class="node">
<title>perf_adjust_freq_unthr_context:[kernel.kallsyms]</title>
<polygon fill="#0ab60a" stroke="#ffffff" points="151,-295 0,-295 0,-243 151,-243 151,-295"/>
<text text-anchor="middle" x="75.5" y="-283" font-family="Arial" font-size="10.00" fill="white">[kernel.kallsyms]</text>
<text text-anchor="middle" x="75.5" y="-272" font-family="Arial" font-size="10.00" fill="white">perf_adjust_freq_unthr_context</text>
<text text-anchor="middle" x="75.5" y="-261" font-family="Arial" font-size="10.00" fill="white">0.00%</text>
<text text-anchor="middle" x="75.5" y="-250" font-family="Arial" font-size="10.00" fill="white">of 50.00%</text>
</g>
<!-- x86_pmu_disable:[kernel.kallsyms] -->
<g id="node14" class="node">
<title>x86_pmu_disable:[kernel.kallsyms]</title>
<polygon fill="#0ab60a" stroke="#ffffff" points="121.5,-214 29.5,-214 29.5,-162 121.5,-162 121.5,-214"/>
<text text-anchor="middle" x="75.5" y="-202" font-family="Arial" font-size="10.00" fill="white">[kernel.kallsyms]</text>
<text text-anchor="middle" x="75.5" y="-191" font-family="Arial" font-size="10.00" fill="white">x86_pmu_disable</text>
<text text-anchor="middle" x="75.5" y="-180" font-family="Arial" font-size="10.00" fill="white">0.00%</text>
<text text-anchor="middle" x="75.5" y="-169" font-family="Arial" font-size="10.00" fill="white">of 50.00%</text>
</g>
<!-- perf_adjust_freq_unthr_context:[kernel.kallsyms]&#45;&gt;x86_pmu_disable:[kernel.kallsyms] -->
<g id="edge8" class="edge">
<title>perf_adjust_freq_unthr_context:[kernel.kallsyms]&#45;&gt;x86_pmu_disable:[kernel.kallsyms]</title>
<path fill="none" stroke="#0ab60a" stroke-width="2" d="M75.5,-242.57C75.5,-235.88 75.5,-228.57 75.5,-221.56"/>
<polygon fill="#0ab60a" stroke="#0ab60a" stroke-width="2" points="77.99,-221.21 75.5,-214.11 73.02,-221.21 77.99,-221.21"/>
<text text-anchor="middle" x="92.5" y="-226" font-family="Arial" font-size="10.00">50.00%</text>
</g>
<!-- x86_pmu_disable:[kernel.kallsyms]&#45;&gt;amd_pmu_disable_all:[kernel.kallsyms] -->
<g id="edge18" class="edge">
<title>x86_pmu_disable:[kernel.kallsyms]&#45;&gt;amd_pmu_disable_all:[kernel.kallsyms]</title>
<path fill="none" stroke="#0ab60a" stroke-width="2" d="M75.5,-161.57C75.5,-154.88 75.5,-147.57 75.5,-140.56"/>
<polygon fill="#0ab60a" stroke="#0ab60a" stroke-width="2" points="77.99,-140.21 75.5,-133.11 73.02,-140.21 77.99,-140.21"/>
<text text-anchor="middle" x="92.5" y="-145" font-family="Arial" font-size="10.00">50.00%</text>
</g>
<!-- perf_event_task_tick:[kernel.kallsyms] -->
<g id="node15" class="node">
<title>perf_event_task_tick:[kernel.kallsyms]</title>
<polygon fill="#0ab60a" stroke="#ffffff" points="129,-376 22,-376 22,-324 129,-324 129,-376"/>
<text text-anchor="middle" x="75.5" y="-364" font-family="Arial" font-size="10.00" fill="white">[kernel.kallsyms]</text>
<text text-anchor="middle" x="75.5" y="-353" font-family="Arial" font-size="10.00" fill="white">perf_event_task_tick</text>
<text text-anchor="middle" x="75.5" y="-342" font-family="Arial" font-size="10.00" fill="white">0.00%</text>
<text text-anchor="middle" x="75.5" y="-331" font-family="Arial" font-size="10.00" fill="white">of 50.00%</text>
</g>
<!-- perf_event_task_tick:[kernel.kallsyms]&#45;&gt;perf_adjust_freq_unthr_context:[kernel.kallsyms] -->
<g id="edge9" class="edge">
<title>perf_event_task_tick:[kernel.kallsyms]&#45;&gt;perf_adjust_freq_unthr_context:[kernel.kallsyms]</title>
<path fill="none" stroke="#0ab60a" stroke-width="2" d="M75.5,-323.57C75.5,-316.88 75.5,-309.57 75.5,-302.56"/>
<polygon fill="#0ab60a" stroke="#0ab60a" stroke-width="2" points="77.99,-302.21 75.5,-295.11 73.02,-302.21 77.99,-302.21"/>
<text text-anchor="middle" x="92.5" y="-307" font-family="Arial" font-size="10.00">50.00%</text>
</g>
<!-- sched_tick:[kernel.kallsyms] -->
<g id="node16" class="node">
<title>sched_tick:[kernel.kallsyms]</title>
<polygon fill="#0ab60a" stroke="#ffffff" points="121,-457 30,-457 30,-405 121,-405 121,-457"/>
<text text-anchor="middle" x="75.5" y="-445" font-family="Arial" font-size="10.00" fill="white">[kernel.kallsyms]</text>
<text text-anchor="middle" x="75.5" y="-434" font-family="Arial" font-size="10.00" fill="white">sched_tick</text>
<text text-anchor="middle" x="75.5" y="-423" font-family="Arial" font-size="10.00" fill="white">0.00%</text>
<text text-anchor="middle" x="75.5" y="-412" font-family="Arial" font-size="10.00" fill="white">of 50.00%</text>
</g>
<!-- sched_tick:[kernel.kallsyms]&#45;&gt;perf_event_task_tick:[kernel.kallsyms] -->
<g id="edge10" class="edge">
<title>sched_tick:[kernel.kallsyms]&#45;&gt;perf_event_task_tick:[kernel.kallsyms]</title>
<path fill="none" stroke="#0ab60a" stroke-width="2" d="M75.5,-404.57C75.5,-397.88 75.5,-390.57 75.5,-383.56"/>
<polygon fill="#0ab60a" stroke="#0ab60a" stroke-width="2" points="77.99,-383.21 75.5,-376.11 73.02,-383.21 77.99,-383.21"/>
<text text-anchor="middle" x="92.5" y="-388" font-family="Arial" font-size="10.00">50.00%</text>
</g>
<!-- wait_for_lock:/home/hpcow/codes/TCSA/mock/contender -->
<g id="node19" class="node">
<title>wait_for_lock:/home/hpcow/codes/TCSA/mock/contender</title>
<polygon fill="#ff0000" stroke="#ffffff" points="214.5,-1186 140.5,-1186 140.5,-1134 214.5,-1134 214.5,-1186"/>
<text text-anchor="middle" x="177.5" y="-1174" font-family="Arial" font-size="10.00" fill="white">contender</text>
<text text-anchor="middle" x="177.5" y="-1163" font-family="Arial" font-size="10.00" fill="white">wait_for_lock</text>
<text text-anchor="middle" x="177.5" y="-1152" font-family="Arial" font-size="10.00" fill="white">0.00%</text>
<text text-anchor="middle" x="177.5" y="-1141" font-family="Arial" font-size="10.00" fill="white">of 100.00%</text>
</g>
<!-- waiter_thread_main:/home/hpcow/codes/TCSA/mock/contender&#45;&gt;wait_for_lock:/home/hpcow/codes/TCSA/mock/contender -->
<g id="edge17" class="edge">
<title>waiter_thread_main:/home/hpcow/codes/TCSA/mock/contender&#45;&gt;wait_for_lock:/home/hpcow/codes/TCSA/mock/contender</title>
<path fill="none" stroke="#ff0000" stroke-width="4" d="M177.5,-1214.57C177.5,-1208.73 177.5,-1202.42 177.5,-1196.25"/>
<polygon fill="#ff0000" stroke="#ff0000" stroke-width="4" points="181,-1196.11 177.5,-1186.11 174,-1196.11 181,-1196.11"/>
<text text-anchor="middle" x="197" y="-1198" font-family="Arial" font-size="10.00">100.00%</text>
</g>
<!-- update_process_times:[kernel.kallsyms]&#45;&gt;sched_tick:[kernel.kallsyms] -->
<g id="edge15" class="edge">
<title>update_process_times:[kernel.kallsyms]&#45;&gt;sched_tick:[kernel.kallsyms]</title>
<path fill="none" stroke="#0ab60a" stroke-width="2" d="M75.5,-485.57C75.5,-478.88 75.5,-471.57 75.5,-464.56"/>
<polygon fill="#0ab60a" stroke="#0ab60a" stroke-width="2" points="77.99,-464.21 75.5,-457.11 73.02,-464.21 77.99,-464.21"/>
<text text-anchor="middle" x="92.5" y="-469" font-family="Arial" font-size="10.00">50.00%</text>
</g>
<!-- wait_for_lock:/home/hpcow/codes/TCSA/mock/contender&#45;&gt;check_and_acquire_lock:/home/hpcow/codes/TCSA/mock/contender -->
<g id="edge16" class="edge">
<title>wait_for_lock:/home/hpcow/codes/TCSA/mock/contender&#45;&gt;check_and_acquire_lock:/home/hpcow/codes/TCSA/mock/contender</title>
<path fill="none" stroke="#ff0000" stroke-width="4" d="M177.5,-1133.57C177.5,-1127.73 177.5,-1121.42 177.5,-1115.25"/>
<polygon fill="#ff0000" stroke="#ff0000" stroke-width="4" points="181,-1115.11 177.5,-1105.11 174,-1115.11 181,-1115.11"/>
<text text-anchor="middle" x="197" y="-1117" font-family="Arial" font-size="10.00">100.00%</text>
</g>
</g>
</svg>
